<mxfile host="app.diagrams.net" modified="2023-12-12T14:02:50.280Z" agent="Mozilla/5.0 (X11; Linux x86_64) AppleWebKit/537.36 (KHTML, like Gecko) Chrome/120.0.0.0 Safari/537.36" etag="VYJ5f9b5TWT08YT28Ke4" version="22.1.7" type="device">
  <diagram name="Page-1" id="q21v9VMaZ5GQ3Boq6yVd">
    <mxGraphModel dx="671" dy="669" grid="1" gridSize="10" guides="1" tooltips="1" connect="1" arrows="1" fold="1" page="1" pageScale="1" pageWidth="1920" pageHeight="1200" math="0" shadow="0">
      <root>
        <mxCell id="0" />
        <mxCell id="1" parent="0" />
        <mxCell id="XQ3u0GxdHT3JZlndSvd5-1" value="" style="endArrow=classic;html=1;rounded=1;exitX=0.5;exitY=1;exitDx=0;exitDy=0;labelBackgroundColor=none;fontColor=default;" edge="1" parent="1" source="XQ3u0GxdHT3JZlndSvd5-5">
          <mxGeometry width="50" height="50" relative="1" as="geometry">
            <mxPoint x="2150" y="1200" as="sourcePoint" />
            <mxPoint x="1860" y="1175" as="targetPoint" />
          </mxGeometry>
        </mxCell>
        <mxCell id="XQ3u0GxdHT3JZlndSvd5-2" value="&lt;div style=&quot;text-align: center;&quot;&gt;&lt;span style=&quot;font-size: 11px; background-color: rgb(255, 255, 255);&quot;&gt;user not authenticated&lt;/span&gt;&lt;/div&gt;" style="text;whiteSpace=wrap;html=1;labelBackgroundColor=none;rounded=1;" vertex="1" parent="1">
          <mxGeometry x="1807" y="1115" width="112" height="32" as="geometry" />
        </mxCell>
        <mxCell id="XQ3u0GxdHT3JZlndSvd5-3" value="&lt;span style=&quot;color: rgb(0, 0, 0); font-family: Helvetica; font-size: 11px; font-style: normal; font-variant-ligatures: normal; font-variant-caps: normal; letter-spacing: normal; orphans: 2; text-align: center; text-indent: 0px; text-transform: none; widows: 2; word-spacing: 0px; -webkit-text-stroke-width: 0px; background-color: rgb(255, 255, 255); text-decoration-thickness: initial; text-decoration-style: initial; text-decoration-color: initial; float: none; display: inline !important;&quot;&gt;Landing/Splash page&lt;/span&gt;" style="text;whiteSpace=wrap;html=1;labelBackgroundColor=none;rounded=1;fontStyle=1" vertex="1" parent="1">
          <mxGeometry x="1807" y="750" width="115" height="40" as="geometry" />
        </mxCell>
        <mxCell id="XQ3u0GxdHT3JZlndSvd5-4" value="" style="group;labelBackgroundColor=none;rounded=1;" vertex="1" connectable="0" parent="1">
          <mxGeometry x="1790" y="780" width="140" height="290" as="geometry" />
        </mxCell>
        <mxCell id="XQ3u0GxdHT3JZlndSvd5-5" value="" style="rounded=1;whiteSpace=wrap;html=1;labelBackgroundColor=none;" vertex="1" parent="XQ3u0GxdHT3JZlndSvd5-4">
          <mxGeometry width="140" height="290" as="geometry" />
        </mxCell>
        <mxCell id="XQ3u0GxdHT3JZlndSvd5-6" value="Logo" style="whiteSpace=wrap;html=1;aspect=fixed;labelBackgroundColor=none;rounded=1;" vertex="1" parent="XQ3u0GxdHT3JZlndSvd5-4">
          <mxGeometry x="30" y="120" width="80" height="80" as="geometry" />
        </mxCell>
        <mxCell id="XQ3u0GxdHT3JZlndSvd5-7" value="" style="endArrow=none;html=1;rounded=1;labelBackgroundColor=none;fontColor=default;" edge="1" parent="XQ3u0GxdHT3JZlndSvd5-4">
          <mxGeometry width="50" height="50" relative="1" as="geometry">
            <mxPoint x="35" y="240" as="sourcePoint" />
            <mxPoint x="105" y="240" as="targetPoint" />
          </mxGeometry>
        </mxCell>
        <mxCell id="XQ3u0GxdHT3JZlndSvd5-8" value="Loading..." style="edgeLabel;html=1;align=center;verticalAlign=middle;resizable=0;points=[];labelBackgroundColor=none;rounded=1;" vertex="1" connectable="0" parent="XQ3u0GxdHT3JZlndSvd5-7">
          <mxGeometry x="0.6" y="-4" relative="1" as="geometry">
            <mxPoint x="-21" y="6" as="offset" />
          </mxGeometry>
        </mxCell>
        <mxCell id="XQ3u0GxdHT3JZlndSvd5-9" value="&lt;span style=&quot;color: rgb(0, 0, 0); font-family: Helvetica; font-size: 11px; font-style: normal; font-variant-ligatures: normal; font-variant-caps: normal; font-weight: 400; letter-spacing: normal; orphans: 2; text-align: center; text-indent: 0px; text-transform: none; widows: 2; word-spacing: 0px; -webkit-text-stroke-width: 0px; background-color: rgb(255, 255, 255); text-decoration-thickness: initial; text-decoration-style: initial; text-decoration-color: initial; float: none; display: inline !important;&quot;&gt;Application Name&lt;/span&gt;" style="text;whiteSpace=wrap;html=1;labelBackgroundColor=none;rounded=1;" vertex="1" parent="XQ3u0GxdHT3JZlndSvd5-4">
          <mxGeometry x="25" y="60" width="90" height="40" as="geometry" />
        </mxCell>
        <mxCell id="XQ3u0GxdHT3JZlndSvd5-10" value="" style="rounded=1;whiteSpace=wrap;html=1;labelBackgroundColor=none;" vertex="1" parent="1">
          <mxGeometry x="1795.96" y="1540.96" width="140" height="290" as="geometry" />
        </mxCell>
        <mxCell id="XQ3u0GxdHT3JZlndSvd5-11" value="" style="group;labelBackgroundColor=none;rounded=1;" vertex="1" connectable="0" parent="1">
          <mxGeometry x="1805.96" y="1560.96" width="120" height="210" as="geometry" />
        </mxCell>
        <mxCell id="XQ3u0GxdHT3JZlndSvd5-12" value="&lt;span style=&quot;color: rgb(0, 0, 0); font-family: Helvetica; font-size: 11px; font-style: normal; font-variant-ligatures: normal; font-variant-caps: normal; font-weight: 400; letter-spacing: normal; orphans: 2; text-align: center; text-indent: 0px; text-transform: none; widows: 2; word-spacing: 0px; -webkit-text-stroke-width: 0px; background-color: rgb(255, 255, 255); text-decoration-thickness: initial; text-decoration-style: initial; text-decoration-color: initial; float: none; display: inline !important;&quot;&gt;welcome text&lt;/span&gt;" style="text;whiteSpace=wrap;html=1;labelBackgroundColor=none;rounded=1;" vertex="1" parent="XQ3u0GxdHT3JZlndSvd5-11">
          <mxGeometry x="24.04" width="90" height="40" as="geometry" />
        </mxCell>
        <mxCell id="XQ3u0GxdHT3JZlndSvd5-13" value="email input" style="rounded=1;whiteSpace=wrap;html=1;labelBackgroundColor=none;" vertex="1" parent="XQ3u0GxdHT3JZlndSvd5-11">
          <mxGeometry y="81" width="120" height="19" as="geometry" />
        </mxCell>
        <mxCell id="XQ3u0GxdHT3JZlndSvd5-14" value="password input" style="rounded=1;whiteSpace=wrap;html=1;labelBackgroundColor=none;" vertex="1" parent="XQ3u0GxdHT3JZlndSvd5-11">
          <mxGeometry y="130" width="120" height="17" as="geometry" />
        </mxCell>
        <mxCell id="XQ3u0GxdHT3JZlndSvd5-15" value="password input" style="rounded=1;whiteSpace=wrap;html=1;labelBackgroundColor=none;" vertex="1" parent="XQ3u0GxdHT3JZlndSvd5-11">
          <mxGeometry y="160" width="120" height="22" as="geometry" />
        </mxCell>
        <mxCell id="XQ3u0GxdHT3JZlndSvd5-16" value="name input" style="rounded=1;whiteSpace=wrap;html=1;labelBackgroundColor=none;" vertex="1" parent="XQ3u0GxdHT3JZlndSvd5-11">
          <mxGeometry y="104.04" width="120" height="19" as="geometry" />
        </mxCell>
        <mxCell id="XQ3u0GxdHT3JZlndSvd5-17" value="&lt;font color=&quot;#ffffff&quot;&gt;Register&lt;/font&gt;" style="rounded=1;whiteSpace=wrap;html=1;labelBackgroundColor=none;fillColor=#000000;" vertex="1" parent="1">
          <mxGeometry x="1805.96" y="1751.96" width="120" height="30" as="geometry" />
        </mxCell>
        <mxCell id="XQ3u0GxdHT3JZlndSvd5-18" value="" style="endArrow=classic;html=1;rounded=1;entryX=0.052;entryY=0.016;entryDx=0;entryDy=0;entryPerimeter=0;labelBackgroundColor=none;fontColor=default;" edge="1" parent="1" source="XQ3u0GxdHT3JZlndSvd5-149" target="XQ3u0GxdHT3JZlndSvd5-10">
          <mxGeometry width="50" height="50" relative="1" as="geometry">
            <mxPoint x="1859.9564879103066" y="1481.96" as="sourcePoint" />
            <mxPoint x="2077.96" y="1560.96" as="targetPoint" />
          </mxGeometry>
        </mxCell>
        <mxCell id="XQ3u0GxdHT3JZlndSvd5-19" style="edgeStyle=orthogonalEdgeStyle;rounded=1;orthogonalLoop=1;jettySize=auto;html=1;exitX=0;exitY=0.25;exitDx=0;exitDy=0;labelBackgroundColor=none;fontColor=default;" edge="1" parent="1">
          <mxGeometry relative="1" as="geometry">
            <mxPoint x="1785.96" y="1459.96" as="targetPoint" />
            <mxPoint x="1795.96" y="1773.96" as="sourcePoint" />
            <Array as="points">
              <mxPoint x="1739.96" y="1773.96" />
              <mxPoint x="1739.96" y="1458.96" />
              <mxPoint x="1779.96" y="1458.96" />
              <mxPoint x="1779.96" y="1459.96" />
            </Array>
          </mxGeometry>
        </mxCell>
        <mxCell id="XQ3u0GxdHT3JZlndSvd5-20" value="&amp;nbsp; On registration success&amp;nbsp;&amp;nbsp;" style="edgeLabel;html=1;align=center;verticalAlign=middle;resizable=0;points=[];rotation=270;labelBackgroundColor=none;rounded=1;" vertex="1" connectable="0" parent="XQ3u0GxdHT3JZlndSvd5-19">
          <mxGeometry x="-0.8431" y="3" relative="1" as="geometry">
            <mxPoint x="-14" y="-135" as="offset" />
          </mxGeometry>
        </mxCell>
        <mxCell id="XQ3u0GxdHT3JZlndSvd5-21" value="" style="endArrow=classic;html=1;rounded=1;entryX=1.007;entryY=0.348;entryDx=0;entryDy=0;entryPerimeter=0;labelBackgroundColor=none;fontColor=default;" edge="1" parent="1" target="XQ3u0GxdHT3JZlndSvd5-10">
          <mxGeometry width="50" height="50" relative="1" as="geometry">
            <mxPoint x="1942.96" y="1774.96" as="sourcePoint" />
            <mxPoint x="1953.96" y="1638.96" as="targetPoint" />
            <Array as="points">
              <mxPoint x="2006.96" y="1774.96" />
              <mxPoint x="2006.96" y="1641.96" />
            </Array>
          </mxGeometry>
        </mxCell>
        <mxCell id="XQ3u0GxdHT3JZlndSvd5-22" value="&lt;span style=&quot;color: rgb(0, 0, 0); font-family: Helvetica; font-size: 11px; font-style: normal; font-variant-ligatures: normal; font-variant-caps: normal; font-weight: 400; letter-spacing: normal; orphans: 2; text-align: center; text-indent: 0px; text-transform: none; widows: 2; word-spacing: 0px; -webkit-text-stroke-width: 0px; background-color: rgb(255, 255, 255); text-decoration-thickness: initial; text-decoration-style: initial; text-decoration-color: initial; float: none; display: inline !important;&quot;&gt;&amp;nbsp; On registration failure&amp;nbsp;&amp;nbsp;&lt;/span&gt;" style="text;whiteSpace=wrap;html=1;rotation=90;labelBackgroundColor=none;rounded=1;" vertex="1" parent="1">
          <mxGeometry x="1916.0033333333333" y="1703.9642857142856" width="150" height="36" as="geometry" />
        </mxCell>
        <mxCell id="XQ3u0GxdHT3JZlndSvd5-23" value="&lt;span style=&quot;color: rgb(0, 0, 0); font-family: Helvetica; font-size: 11px; font-style: normal; font-variant-ligatures: normal; font-variant-caps: normal; font-weight: 400; letter-spacing: normal; orphans: 2; text-align: center; text-indent: 0px; text-transform: none; widows: 2; word-spacing: 0px; -webkit-text-stroke-width: 0px; background-color: rgb(255, 255, 255); text-decoration-thickness: initial; text-decoration-style: initial; text-decoration-color: initial; float: none; display: inline !important;&quot;&gt;User authenticated from cache&lt;/span&gt;" style="text;whiteSpace=wrap;html=1;labelBackgroundColor=none;rounded=1;" vertex="1" parent="1">
          <mxGeometry x="1951" y="878" width="115" height="40" as="geometry" />
        </mxCell>
        <mxCell id="XQ3u0GxdHT3JZlndSvd5-24" value="&lt;span style=&quot;color: rgb(0, 0, 0); font-family: Helvetica; font-size: 11px; font-style: normal; font-variant-ligatures: normal; font-variant-caps: normal; letter-spacing: normal; orphans: 2; text-align: center; text-indent: 0px; text-transform: none; widows: 2; word-spacing: 0px; -webkit-text-stroke-width: 0px; background-color: rgb(255, 255, 255); text-decoration-thickness: initial; text-decoration-style: initial; text-decoration-color: initial; float: none; display: inline !important;&quot;&gt;Login page&lt;/span&gt;" style="text;whiteSpace=wrap;html=1;labelBackgroundColor=none;rounded=1;fontStyle=1" vertex="1" parent="1">
          <mxGeometry x="1828" y="1169" width="115" height="40" as="geometry" />
        </mxCell>
        <mxCell id="XQ3u0GxdHT3JZlndSvd5-25" value="&lt;span style=&quot;color: rgb(0, 0, 0); font-family: Helvetica; font-size: 11px; font-style: normal; font-variant-ligatures: normal; font-variant-caps: normal; letter-spacing: normal; orphans: 2; text-align: center; text-indent: 0px; text-transform: none; widows: 2; word-spacing: 0px; -webkit-text-stroke-width: 0px; background-color: rgb(255, 255, 255); text-decoration-thickness: initial; text-decoration-style: initial; text-decoration-color: initial; float: none; display: inline !important;&quot;&gt;Registration page&lt;/span&gt;" style="text;whiteSpace=wrap;html=1;labelBackgroundColor=none;rounded=1;fontStyle=1" vertex="1" parent="1">
          <mxGeometry x="1828" y="1509" width="115" height="40" as="geometry" />
        </mxCell>
        <mxCell id="XQ3u0GxdHT3JZlndSvd5-26" value="" style="rounded=1;whiteSpace=wrap;html=1;labelBackgroundColor=none;" vertex="1" parent="1">
          <mxGeometry x="2250" y="769" width="140" height="290" as="geometry" />
        </mxCell>
        <mxCell id="XQ3u0GxdHT3JZlndSvd5-27" value="app name / logo" style="rounded=1;whiteSpace=wrap;html=1;labelBackgroundColor=none;" vertex="1" parent="1">
          <mxGeometry x="2261" y="784" width="69" height="35" as="geometry" />
        </mxCell>
        <mxCell id="XQ3u0GxdHT3JZlndSvd5-28" style="edgeStyle=orthogonalEdgeStyle;rounded=1;orthogonalLoop=1;jettySize=auto;html=1;exitX=1;exitY=0.5;exitDx=0;exitDy=0;" edge="1" parent="1" source="XQ3u0GxdHT3JZlndSvd5-29" target="XQ3u0GxdHT3JZlndSvd5-93">
          <mxGeometry relative="1" as="geometry" />
        </mxCell>
        <mxCell id="XQ3u0GxdHT3JZlndSvd5-29" value="Find online players" style="rounded=1;whiteSpace=wrap;html=1;labelBackgroundColor=none;" vertex="1" parent="1">
          <mxGeometry x="2261" y="851" width="118" height="27" as="geometry" />
        </mxCell>
        <mxCell id="XQ3u0GxdHT3JZlndSvd5-30" style="edgeStyle=orthogonalEdgeStyle;rounded=1;orthogonalLoop=1;jettySize=auto;html=1;exitX=1;exitY=0.5;exitDx=0;exitDy=0;" edge="1" parent="1" source="XQ3u0GxdHT3JZlndSvd5-31" target="XQ3u0GxdHT3JZlndSvd5-95">
          <mxGeometry relative="1" as="geometry" />
        </mxCell>
        <mxCell id="XQ3u0GxdHT3JZlndSvd5-31" value="Join with invitation code" style="rounded=1;whiteSpace=wrap;html=1;labelBackgroundColor=none;" vertex="1" parent="1">
          <mxGeometry x="2259" y="892" width="118" height="37" as="geometry" />
        </mxCell>
        <mxCell id="XQ3u0GxdHT3JZlndSvd5-32" style="edgeStyle=orthogonalEdgeStyle;rounded=1;orthogonalLoop=1;jettySize=auto;html=1;exitX=0.5;exitY=1;exitDx=0;exitDy=0;" edge="1" parent="1" source="XQ3u0GxdHT3JZlndSvd5-33">
          <mxGeometry relative="1" as="geometry">
            <mxPoint x="2210" y="1189" as="targetPoint" />
          </mxGeometry>
        </mxCell>
        <mxCell id="XQ3u0GxdHT3JZlndSvd5-33" value="&lt;span style=&quot;color: rgb(0, 0, 0); font-family: Helvetica; font-size: 9px; font-style: normal; font-variant-ligatures: normal; font-variant-caps: normal; font-weight: 400; letter-spacing: normal; orphans: 2; text-align: center; text-indent: 0px; text-transform: none; widows: 2; word-spacing: 0px; -webkit-text-stroke-width: 0px; background-color: rgb(251, 251, 251); text-decoration-thickness: initial; text-decoration-style: initial; text-decoration-color: initial; float: none; display: inline !important;&quot;&gt;Leaderboard&lt;/span&gt;" style="rounded=1;whiteSpace=wrap;html=1;labelBackgroundColor=none;" vertex="1" parent="1">
          <mxGeometry x="2259" y="983" width="58" height="43" as="geometry" />
        </mxCell>
        <mxCell id="XQ3u0GxdHT3JZlndSvd5-34" style="edgeStyle=orthogonalEdgeStyle;rounded=1;orthogonalLoop=1;jettySize=auto;html=1;exitX=0.5;exitY=1;exitDx=0;exitDy=0;entryX=0.5;entryY=0;entryDx=0;entryDy=0;" edge="1" parent="1" source="XQ3u0GxdHT3JZlndSvd5-35" target="XQ3u0GxdHT3JZlndSvd5-60">
          <mxGeometry relative="1" as="geometry">
            <Array as="points">
              <mxPoint x="2352" y="1509" />
              <mxPoint x="2204" y="1509" />
            </Array>
          </mxGeometry>
        </mxCell>
        <mxCell id="XQ3u0GxdHT3JZlndSvd5-35" value="&lt;font style=&quot;font-size: 8px;&quot;&gt;Personal Game Records&lt;/font&gt;" style="rounded=1;whiteSpace=wrap;html=1;labelBackgroundColor=none;" vertex="1" parent="1">
          <mxGeometry x="2323" y="983" width="58" height="44" as="geometry" />
        </mxCell>
        <mxCell id="XQ3u0GxdHT3JZlndSvd5-36" value="&lt;span style=&quot;color: rgb(0, 0, 0); font-family: Helvetica; font-size: 11px; font-style: normal; font-variant-ligatures: normal; font-variant-caps: normal; letter-spacing: normal; orphans: 2; text-align: center; text-indent: 0px; text-transform: none; widows: 2; word-spacing: 0px; -webkit-text-stroke-width: 0px; background-color: rgb(255, 255, 255); text-decoration-thickness: initial; text-decoration-style: initial; text-decoration-color: initial; float: none; display: inline !important;&quot;&gt;Application Home&amp;nbsp;&lt;/span&gt;" style="text;whiteSpace=wrap;html=1;labelBackgroundColor=none;rounded=1;fontStyle=1" vertex="1" parent="1">
          <mxGeometry x="2273.94" y="740" width="115" height="40" as="geometry" />
        </mxCell>
        <mxCell id="XQ3u0GxdHT3JZlndSvd5-37" style="edgeStyle=orthogonalEdgeStyle;rounded=0;orthogonalLoop=1;jettySize=auto;html=1;exitX=1;exitY=0.5;exitDx=0;exitDy=0;entryX=0;entryY=0.5;entryDx=0;entryDy=0;" edge="1" parent="1" source="XQ3u0GxdHT3JZlndSvd5-38" target="XQ3u0GxdHT3JZlndSvd5-100">
          <mxGeometry relative="1" as="geometry">
            <Array as="points">
              <mxPoint x="2400" y="951" />
              <mxPoint x="2400" y="1432" />
            </Array>
          </mxGeometry>
        </mxCell>
        <mxCell id="XQ3u0GxdHT3JZlndSvd5-38" value="Invite someone to play" style="rounded=1;whiteSpace=wrap;html=1;labelBackgroundColor=none;" vertex="1" parent="1">
          <mxGeometry x="2261" y="932" width="118" height="37" as="geometry" />
        </mxCell>
        <mxCell id="XQ3u0GxdHT3JZlndSvd5-39" value="" style="group" vertex="1" connectable="0" parent="1">
          <mxGeometry x="2133.94" y="1184" width="140" height="290" as="geometry" />
        </mxCell>
        <mxCell id="XQ3u0GxdHT3JZlndSvd5-40" value="view all records" style="rounded=1;whiteSpace=wrap;html=1;" vertex="1" parent="XQ3u0GxdHT3JZlndSvd5-39">
          <mxGeometry x="4.560000000000002" y="228" width="112" height="15" as="geometry" />
        </mxCell>
        <mxCell id="XQ3u0GxdHT3JZlndSvd5-41" value="" style="rounded=1;whiteSpace=wrap;html=1;labelBackgroundColor=none;" vertex="1" parent="XQ3u0GxdHT3JZlndSvd5-39">
          <mxGeometry y="10" width="140" height="290" as="geometry" />
        </mxCell>
        <mxCell id="XQ3u0GxdHT3JZlndSvd5-42" value="LEADERBOARD" style="text;html=1;align=center;verticalAlign=middle;resizable=0;points=[];autosize=1;strokeColor=none;fillColor=none;" vertex="1" parent="XQ3u0GxdHT3JZlndSvd5-39">
          <mxGeometry x="17.560000000000002" y="43" width="109" height="26" as="geometry" />
        </mxCell>
        <mxCell id="XQ3u0GxdHT3JZlndSvd5-43" value="top players" style="text;html=1;align=center;verticalAlign=middle;resizable=0;points=[];autosize=1;strokeColor=none;fillColor=none;" vertex="1" parent="XQ3u0GxdHT3JZlndSvd5-39">
          <mxGeometry x="33.56" y="87" width="77" height="26" as="geometry" />
        </mxCell>
        <mxCell id="XQ3u0GxdHT3JZlndSvd5-44" value="" style="shape=table;startSize=0;container=1;collapsible=0;childLayout=tableLayout;" vertex="1" parent="XQ3u0GxdHT3JZlndSvd5-39">
          <mxGeometry x="18" y="115" width="104" height="103.72413793103442" as="geometry" />
        </mxCell>
        <mxCell id="XQ3u0GxdHT3JZlndSvd5-45" value="" style="shape=tableRow;horizontal=0;startSize=0;swimlaneHead=0;swimlaneBody=0;strokeColor=inherit;top=0;left=0;bottom=0;right=0;collapsible=0;dropTarget=0;fillColor=none;points=[[0,0.5],[1,0.5]];portConstraint=eastwest;" vertex="1" parent="XQ3u0GxdHT3JZlndSvd5-44">
          <mxGeometry width="104" height="44" as="geometry" />
        </mxCell>
        <mxCell id="XQ3u0GxdHT3JZlndSvd5-46" value="player&lt;br&gt;name" style="shape=partialRectangle;html=1;whiteSpace=wrap;connectable=0;strokeColor=inherit;overflow=hidden;fillColor=none;top=0;left=0;bottom=0;right=0;pointerEvents=1;" vertex="1" parent="XQ3u0GxdHT3JZlndSvd5-45">
          <mxGeometry width="53" height="44" as="geometry">
            <mxRectangle width="53" height="44" as="alternateBounds" />
          </mxGeometry>
        </mxCell>
        <mxCell id="XQ3u0GxdHT3JZlndSvd5-47" value="total wins" style="shape=partialRectangle;html=1;whiteSpace=wrap;connectable=0;strokeColor=inherit;overflow=hidden;fillColor=none;top=0;left=0;bottom=0;right=0;pointerEvents=1;" vertex="1" parent="XQ3u0GxdHT3JZlndSvd5-45">
          <mxGeometry x="53" width="51" height="44" as="geometry">
            <mxRectangle width="51" height="44" as="alternateBounds" />
          </mxGeometry>
        </mxCell>
        <mxCell id="XQ3u0GxdHT3JZlndSvd5-48" value="" style="shape=tableRow;horizontal=0;startSize=0;swimlaneHead=0;swimlaneBody=0;strokeColor=inherit;top=0;left=0;bottom=0;right=0;collapsible=0;dropTarget=0;fillColor=none;points=[[0,0.5],[1,0.5]];portConstraint=eastwest;" vertex="1" parent="XQ3u0GxdHT3JZlndSvd5-44">
          <mxGeometry y="44" width="104" height="20" as="geometry" />
        </mxCell>
        <mxCell id="XQ3u0GxdHT3JZlndSvd5-49" value="" style="shape=partialRectangle;html=1;whiteSpace=wrap;connectable=0;strokeColor=inherit;overflow=hidden;fillColor=none;top=0;left=0;bottom=0;right=0;pointerEvents=1;" vertex="1" parent="XQ3u0GxdHT3JZlndSvd5-48">
          <mxGeometry width="53" height="20" as="geometry">
            <mxRectangle width="53" height="20" as="alternateBounds" />
          </mxGeometry>
        </mxCell>
        <mxCell id="XQ3u0GxdHT3JZlndSvd5-50" value="" style="shape=partialRectangle;html=1;whiteSpace=wrap;connectable=0;strokeColor=inherit;overflow=hidden;fillColor=none;top=0;left=0;bottom=0;right=0;pointerEvents=1;" vertex="1" parent="XQ3u0GxdHT3JZlndSvd5-48">
          <mxGeometry x="53" width="51" height="20" as="geometry">
            <mxRectangle width="51" height="20" as="alternateBounds" />
          </mxGeometry>
        </mxCell>
        <mxCell id="XQ3u0GxdHT3JZlndSvd5-51" value="" style="shape=tableRow;horizontal=0;startSize=0;swimlaneHead=0;swimlaneBody=0;strokeColor=inherit;top=0;left=0;bottom=0;right=0;collapsible=0;dropTarget=0;fillColor=none;points=[[0,0.5],[1,0.5]];portConstraint=eastwest;" vertex="1" parent="XQ3u0GxdHT3JZlndSvd5-44">
          <mxGeometry y="64" width="104" height="20" as="geometry" />
        </mxCell>
        <mxCell id="XQ3u0GxdHT3JZlndSvd5-52" value="" style="shape=partialRectangle;html=1;whiteSpace=wrap;connectable=0;strokeColor=inherit;overflow=hidden;fillColor=none;top=0;left=0;bottom=0;right=0;pointerEvents=1;" vertex="1" parent="XQ3u0GxdHT3JZlndSvd5-51">
          <mxGeometry width="53" height="20" as="geometry">
            <mxRectangle width="53" height="20" as="alternateBounds" />
          </mxGeometry>
        </mxCell>
        <mxCell id="XQ3u0GxdHT3JZlndSvd5-53" value="" style="shape=partialRectangle;html=1;whiteSpace=wrap;connectable=0;strokeColor=inherit;overflow=hidden;fillColor=none;top=0;left=0;bottom=0;right=0;pointerEvents=1;" vertex="1" parent="XQ3u0GxdHT3JZlndSvd5-51">
          <mxGeometry x="53" width="51" height="20" as="geometry">
            <mxRectangle width="51" height="20" as="alternateBounds" />
          </mxGeometry>
        </mxCell>
        <mxCell id="XQ3u0GxdHT3JZlndSvd5-54" value="" style="shape=tableRow;horizontal=0;startSize=0;swimlaneHead=0;swimlaneBody=0;strokeColor=inherit;top=0;left=0;bottom=0;right=0;collapsible=0;dropTarget=0;fillColor=none;points=[[0,0.5],[1,0.5]];portConstraint=eastwest;" vertex="1" parent="XQ3u0GxdHT3JZlndSvd5-44">
          <mxGeometry y="84" width="104" height="20" as="geometry" />
        </mxCell>
        <mxCell id="XQ3u0GxdHT3JZlndSvd5-55" value="" style="shape=partialRectangle;html=1;whiteSpace=wrap;connectable=0;strokeColor=inherit;overflow=hidden;fillColor=none;top=0;left=0;bottom=0;right=0;pointerEvents=1;" vertex="1" parent="XQ3u0GxdHT3JZlndSvd5-54">
          <mxGeometry width="53" height="20" as="geometry">
            <mxRectangle width="53" height="20" as="alternateBounds" />
          </mxGeometry>
        </mxCell>
        <mxCell id="XQ3u0GxdHT3JZlndSvd5-56" value="" style="shape=partialRectangle;html=1;whiteSpace=wrap;connectable=0;strokeColor=inherit;overflow=hidden;fillColor=none;top=0;left=0;bottom=0;right=0;pointerEvents=1;" vertex="1" parent="XQ3u0GxdHT3JZlndSvd5-54">
          <mxGeometry x="53" width="51" height="20" as="geometry">
            <mxRectangle width="51" height="20" as="alternateBounds" />
          </mxGeometry>
        </mxCell>
        <mxCell id="XQ3u0GxdHT3JZlndSvd5-58" value="your position: --" style="rounded=1;whiteSpace=wrap;html=1;" vertex="1" parent="XQ3u0GxdHT3JZlndSvd5-39">
          <mxGeometry x="14" y="63" width="112" height="15" as="geometry" />
        </mxCell>
        <mxCell id="XQ3u0GxdHT3JZlndSvd5-59" value="" style="group" vertex="1" connectable="0" parent="1">
          <mxGeometry x="2133.94" y="1539" width="140.00000000000006" height="290" as="geometry" />
        </mxCell>
        <mxCell id="XQ3u0GxdHT3JZlndSvd5-60" value="" style="rounded=1;whiteSpace=wrap;html=1;labelBackgroundColor=none;" vertex="1" parent="XQ3u0GxdHT3JZlndSvd5-59">
          <mxGeometry width="140" height="290" as="geometry" />
        </mxCell>
        <mxCell id="XQ3u0GxdHT3JZlndSvd5-61" value="last 5 games" style="text;html=1;align=center;verticalAlign=middle;resizable=0;points=[];autosize=1;strokeColor=none;fillColor=none;" vertex="1" parent="XQ3u0GxdHT3JZlndSvd5-59">
          <mxGeometry x="29.560000000000002" y="62" width="86" height="26" as="geometry" />
        </mxCell>
        <mxCell id="XQ3u0GxdHT3JZlndSvd5-62" value="" style="shape=table;startSize=0;container=1;collapsible=0;childLayout=tableLayout;" vertex="1" parent="XQ3u0GxdHT3JZlndSvd5-59">
          <mxGeometry x="9" y="100" width="125" height="25" as="geometry" />
        </mxCell>
        <mxCell id="XQ3u0GxdHT3JZlndSvd5-63" value="" style="shape=tableRow;horizontal=0;startSize=0;swimlaneHead=0;swimlaneBody=0;strokeColor=inherit;top=0;left=0;bottom=0;right=0;collapsible=0;dropTarget=0;fillColor=none;points=[[0,0.5],[1,0.5]];portConstraint=eastwest;" vertex="1" parent="XQ3u0GxdHT3JZlndSvd5-62">
          <mxGeometry width="125" height="25" as="geometry" />
        </mxCell>
        <mxCell id="XQ3u0GxdHT3JZlndSvd5-64" value="opponent&lt;span style=&quot;white-space: pre;&quot;&gt;&#x9;&lt;/span&gt;" style="shape=partialRectangle;html=1;whiteSpace=wrap;connectable=0;strokeColor=inherit;overflow=hidden;fillColor=none;top=0;left=0;bottom=0;right=0;pointerEvents=1;align=center;" vertex="1" parent="XQ3u0GxdHT3JZlndSvd5-63">
          <mxGeometry width="63" height="25" as="geometry">
            <mxRectangle width="63" height="25" as="alternateBounds" />
          </mxGeometry>
        </mxCell>
        <mxCell id="XQ3u0GxdHT3JZlndSvd5-65" value="status" style="shape=partialRectangle;html=1;whiteSpace=wrap;connectable=0;strokeColor=inherit;overflow=hidden;fillColor=none;top=0;left=0;bottom=0;right=0;pointerEvents=1;" vertex="1" parent="XQ3u0GxdHT3JZlndSvd5-63">
          <mxGeometry x="63" width="62" height="25" as="geometry">
            <mxRectangle width="62" height="25" as="alternateBounds" />
          </mxGeometry>
        </mxCell>
        <mxCell id="XQ3u0GxdHT3JZlndSvd5-66" value="PERSONAL&lt;br&gt;RECORS" style="text;html=1;align=center;verticalAlign=middle;resizable=0;points=[];autosize=1;strokeColor=none;fillColor=none;" vertex="1" parent="XQ3u0GxdHT3JZlndSvd5-59">
          <mxGeometry x="31" y="17" width="83" height="41" as="geometry" />
        </mxCell>
        <mxCell id="XQ3u0GxdHT3JZlndSvd5-67" value="" style="shape=table;startSize=0;container=1;collapsible=0;childLayout=tableLayout;" vertex="1" parent="XQ3u0GxdHT3JZlndSvd5-59">
          <mxGeometry x="9" y="126" width="125" height="72" as="geometry" />
        </mxCell>
        <mxCell id="XQ3u0GxdHT3JZlndSvd5-68" value="" style="shape=tableRow;horizontal=0;startSize=0;swimlaneHead=0;swimlaneBody=0;strokeColor=inherit;top=0;left=0;bottom=0;right=0;collapsible=0;dropTarget=0;fillColor=none;points=[[0,0.5],[1,0.5]];portConstraint=eastwest;" vertex="1" parent="XQ3u0GxdHT3JZlndSvd5-67">
          <mxGeometry width="125" height="14" as="geometry" />
        </mxCell>
        <mxCell id="XQ3u0GxdHT3JZlndSvd5-69" value="" style="shape=partialRectangle;html=1;whiteSpace=wrap;connectable=0;strokeColor=inherit;overflow=hidden;fillColor=none;top=0;left=0;bottom=0;right=0;pointerEvents=1;" vertex="1" parent="XQ3u0GxdHT3JZlndSvd5-68">
          <mxGeometry width="64" height="14" as="geometry">
            <mxRectangle width="64" height="14" as="alternateBounds" />
          </mxGeometry>
        </mxCell>
        <mxCell id="XQ3u0GxdHT3JZlndSvd5-70" value="" style="shape=partialRectangle;html=1;whiteSpace=wrap;connectable=0;strokeColor=inherit;overflow=hidden;fillColor=none;top=0;left=0;bottom=0;right=0;pointerEvents=1;" vertex="1" parent="XQ3u0GxdHT3JZlndSvd5-68">
          <mxGeometry x="64" width="61" height="14" as="geometry">
            <mxRectangle width="61" height="14" as="alternateBounds" />
          </mxGeometry>
        </mxCell>
        <mxCell id="XQ3u0GxdHT3JZlndSvd5-71" value="" style="shape=tableRow;horizontal=0;startSize=0;swimlaneHead=0;swimlaneBody=0;strokeColor=inherit;top=0;left=0;bottom=0;right=0;collapsible=0;dropTarget=0;fillColor=none;points=[[0,0.5],[1,0.5]];portConstraint=eastwest;" vertex="1" parent="XQ3u0GxdHT3JZlndSvd5-67">
          <mxGeometry y="14" width="125" height="14" as="geometry" />
        </mxCell>
        <mxCell id="XQ3u0GxdHT3JZlndSvd5-72" value="" style="shape=partialRectangle;html=1;whiteSpace=wrap;connectable=0;strokeColor=inherit;overflow=hidden;fillColor=none;top=0;left=0;bottom=0;right=0;pointerEvents=1;" vertex="1" parent="XQ3u0GxdHT3JZlndSvd5-71">
          <mxGeometry width="64" height="14" as="geometry">
            <mxRectangle width="64" height="14" as="alternateBounds" />
          </mxGeometry>
        </mxCell>
        <mxCell id="XQ3u0GxdHT3JZlndSvd5-73" value="" style="shape=partialRectangle;html=1;whiteSpace=wrap;connectable=0;strokeColor=inherit;overflow=hidden;fillColor=none;top=0;left=0;bottom=0;right=0;pointerEvents=1;" vertex="1" parent="XQ3u0GxdHT3JZlndSvd5-71">
          <mxGeometry x="64" width="61" height="14" as="geometry">
            <mxRectangle width="61" height="14" as="alternateBounds" />
          </mxGeometry>
        </mxCell>
        <mxCell id="XQ3u0GxdHT3JZlndSvd5-74" value="" style="shape=tableRow;horizontal=0;startSize=0;swimlaneHead=0;swimlaneBody=0;strokeColor=inherit;top=0;left=0;bottom=0;right=0;collapsible=0;dropTarget=0;fillColor=none;points=[[0,0.5],[1,0.5]];portConstraint=eastwest;" vertex="1" parent="XQ3u0GxdHT3JZlndSvd5-67">
          <mxGeometry y="28" width="125" height="16" as="geometry" />
        </mxCell>
        <mxCell id="XQ3u0GxdHT3JZlndSvd5-75" value="" style="shape=partialRectangle;html=1;whiteSpace=wrap;connectable=0;strokeColor=inherit;overflow=hidden;fillColor=none;top=0;left=0;bottom=0;right=0;pointerEvents=1;" vertex="1" parent="XQ3u0GxdHT3JZlndSvd5-74">
          <mxGeometry width="64" height="16" as="geometry">
            <mxRectangle width="64" height="16" as="alternateBounds" />
          </mxGeometry>
        </mxCell>
        <mxCell id="XQ3u0GxdHT3JZlndSvd5-76" value="" style="shape=partialRectangle;html=1;whiteSpace=wrap;connectable=0;strokeColor=inherit;overflow=hidden;fillColor=none;top=0;left=0;bottom=0;right=0;pointerEvents=1;" vertex="1" parent="XQ3u0GxdHT3JZlndSvd5-74">
          <mxGeometry x="64" width="61" height="16" as="geometry">
            <mxRectangle width="61" height="16" as="alternateBounds" />
          </mxGeometry>
        </mxCell>
        <mxCell id="XQ3u0GxdHT3JZlndSvd5-77" value="" style="shape=tableRow;horizontal=0;startSize=0;swimlaneHead=0;swimlaneBody=0;strokeColor=inherit;top=0;left=0;bottom=0;right=0;collapsible=0;dropTarget=0;fillColor=none;points=[[0,0.5],[1,0.5]];portConstraint=eastwest;" vertex="1" parent="XQ3u0GxdHT3JZlndSvd5-67">
          <mxGeometry y="44" width="125" height="14" as="geometry" />
        </mxCell>
        <mxCell id="XQ3u0GxdHT3JZlndSvd5-78" value="" style="shape=partialRectangle;html=1;whiteSpace=wrap;connectable=0;strokeColor=inherit;overflow=hidden;fillColor=none;top=0;left=0;bottom=0;right=0;pointerEvents=1;" vertex="1" parent="XQ3u0GxdHT3JZlndSvd5-77">
          <mxGeometry width="64" height="14" as="geometry">
            <mxRectangle width="64" height="14" as="alternateBounds" />
          </mxGeometry>
        </mxCell>
        <mxCell id="XQ3u0GxdHT3JZlndSvd5-79" value="" style="shape=partialRectangle;html=1;whiteSpace=wrap;connectable=0;strokeColor=inherit;overflow=hidden;fillColor=none;top=0;left=0;bottom=0;right=0;pointerEvents=1;" vertex="1" parent="XQ3u0GxdHT3JZlndSvd5-77">
          <mxGeometry x="64" width="61" height="14" as="geometry">
            <mxRectangle width="61" height="14" as="alternateBounds" />
          </mxGeometry>
        </mxCell>
        <mxCell id="XQ3u0GxdHT3JZlndSvd5-80" value="" style="shape=tableRow;horizontal=0;startSize=0;swimlaneHead=0;swimlaneBody=0;strokeColor=inherit;top=0;left=0;bottom=0;right=0;collapsible=0;dropTarget=0;fillColor=none;points=[[0,0.5],[1,0.5]];portConstraint=eastwest;" vertex="1" parent="XQ3u0GxdHT3JZlndSvd5-67">
          <mxGeometry y="58" width="125" height="14" as="geometry" />
        </mxCell>
        <mxCell id="XQ3u0GxdHT3JZlndSvd5-81" value="" style="shape=partialRectangle;html=1;whiteSpace=wrap;connectable=0;strokeColor=inherit;overflow=hidden;fillColor=none;top=0;left=0;bottom=0;right=0;pointerEvents=1;" vertex="1" parent="XQ3u0GxdHT3JZlndSvd5-80">
          <mxGeometry width="64" height="14" as="geometry">
            <mxRectangle width="64" height="14" as="alternateBounds" />
          </mxGeometry>
        </mxCell>
        <mxCell id="XQ3u0GxdHT3JZlndSvd5-82" value="" style="shape=partialRectangle;html=1;whiteSpace=wrap;connectable=0;strokeColor=inherit;overflow=hidden;fillColor=none;top=0;left=0;bottom=0;right=0;pointerEvents=1;" vertex="1" parent="XQ3u0GxdHT3JZlndSvd5-80">
          <mxGeometry x="64" width="61" height="14" as="geometry">
            <mxRectangle width="61" height="14" as="alternateBounds" />
          </mxGeometry>
        </mxCell>
        <mxCell id="XQ3u0GxdHT3JZlndSvd5-83" value="view all records" style="rounded=1;whiteSpace=wrap;html=1;" vertex="1" parent="XQ3u0GxdHT3JZlndSvd5-59">
          <mxGeometry x="18.060000000000002" y="236" width="112" height="15" as="geometry" />
        </mxCell>
        <mxCell id="XQ3u0GxdHT3JZlndSvd5-84" style="edgeStyle=orthogonalEdgeStyle;rounded=1;orthogonalLoop=1;jettySize=auto;html=1;entryX=-0.011;entryY=0.686;entryDx=0;entryDy=0;entryPerimeter=0;exitX=1.004;exitY=0.218;exitDx=0;exitDy=0;exitPerimeter=0;" edge="1" parent="1">
          <mxGeometry relative="1" as="geometry">
            <mxPoint x="1936.52" y="1599.18" as="sourcePoint" />
            <mxPoint x="2248.46" y="962.9399999999999" as="targetPoint" />
            <Array as="points">
              <mxPoint x="1936" y="1595" />
              <mxPoint x="2046" y="1595" />
              <mxPoint x="2046" y="964" />
              <mxPoint x="2240" y="964" />
              <mxPoint x="2240" y="963" />
            </Array>
          </mxGeometry>
        </mxCell>
        <mxCell id="XQ3u0GxdHT3JZlndSvd5-85" style="edgeStyle=orthogonalEdgeStyle;rounded=1;orthogonalLoop=1;jettySize=auto;html=1;exitX=1;exitY=0.25;exitDx=0;exitDy=0;entryX=-0.011;entryY=0.627;entryDx=0;entryDy=0;entryPerimeter=0;" edge="1" parent="1">
          <mxGeometry relative="1" as="geometry">
            <mxPoint x="1931" y="1258.5" as="sourcePoint" />
            <mxPoint x="2248.46" y="945.8299999999999" as="targetPoint" />
            <Array as="points">
              <mxPoint x="2020" y="1258" />
              <mxPoint x="2020" y="946" />
            </Array>
          </mxGeometry>
        </mxCell>
        <mxCell id="XQ3u0GxdHT3JZlndSvd5-86" style="edgeStyle=orthogonalEdgeStyle;rounded=0;orthogonalLoop=1;jettySize=auto;html=1;exitX=1;exitY=0.5;exitDx=0;exitDy=0;entryX=-0.014;entryY=0.539;entryDx=0;entryDy=0;entryPerimeter=0;" edge="1" parent="1" source="XQ3u0GxdHT3JZlndSvd5-5" target="XQ3u0GxdHT3JZlndSvd5-26">
          <mxGeometry relative="1" as="geometry" />
        </mxCell>
        <mxCell id="XQ3u0GxdHT3JZlndSvd5-87" style="edgeStyle=orthogonalEdgeStyle;rounded=1;orthogonalLoop=1;jettySize=auto;html=1;exitX=1;exitY=0.5;exitDx=0;exitDy=0;entryX=0.5;entryY=0;entryDx=0;entryDy=0;" edge="1" parent="1" source="XQ3u0GxdHT3JZlndSvd5-88" target="XQ3u0GxdHT3JZlndSvd5-139">
          <mxGeometry relative="1" as="geometry">
            <Array as="points">
              <mxPoint x="2381" y="789" />
              <mxPoint x="3310" y="789" />
            </Array>
          </mxGeometry>
        </mxCell>
        <mxCell id="XQ3u0GxdHT3JZlndSvd5-88" value="&lt;font style=&quot;font-size: 9px;&quot;&gt;user image, name&lt;/font&gt;" style="ellipse;whiteSpace=wrap;html=1;aspect=fixed;" vertex="1" parent="1">
          <mxGeometry x="2341.0299999999997" y="782.03" width="39.97" height="39.97" as="geometry" />
        </mxCell>
        <mxCell id="XQ3u0GxdHT3JZlndSvd5-89" style="edgeStyle=orthogonalEdgeStyle;rounded=0;orthogonalLoop=1;jettySize=auto;html=1;exitX=0.5;exitY=1;exitDx=0;exitDy=0;" edge="1" parent="1" source="XQ3u0GxdHT3JZlndSvd5-93">
          <mxGeometry relative="1" as="geometry">
            <mxPoint x="2820.1764705882356" y="1529" as="targetPoint" />
          </mxGeometry>
        </mxCell>
        <mxCell id="XQ3u0GxdHT3JZlndSvd5-90" value="On Success" style="edgeLabel;html=1;align=center;verticalAlign=middle;resizable=0;points=[];rotation=90;" vertex="1" connectable="0" parent="XQ3u0GxdHT3JZlndSvd5-89">
          <mxGeometry x="0.0621" y="-6" relative="1" as="geometry">
            <mxPoint x="20" y="-1" as="offset" />
          </mxGeometry>
        </mxCell>
        <mxCell id="XQ3u0GxdHT3JZlndSvd5-91" value="On Failure" style="edgeLabel;html=1;align=center;verticalAlign=middle;resizable=0;points=[];rotation=90;" vertex="1" connectable="0" parent="XQ3u0GxdHT3JZlndSvd5-89">
          <mxGeometry x="0.0621" y="-6" relative="1" as="geometry">
            <mxPoint x="115" y="-241" as="offset" />
          </mxGeometry>
        </mxCell>
        <mxCell id="XQ3u0GxdHT3JZlndSvd5-92" style="edgeStyle=orthogonalEdgeStyle;rounded=1;orthogonalLoop=1;jettySize=auto;html=1;exitX=1;exitY=0.5;exitDx=0;exitDy=0;entryX=1;entryY=0.25;entryDx=0;entryDy=0;" edge="1" parent="1" source="XQ3u0GxdHT3JZlndSvd5-93" target="XQ3u0GxdHT3JZlndSvd5-26">
          <mxGeometry relative="1" as="geometry" />
        </mxCell>
        <mxCell id="XQ3u0GxdHT3JZlndSvd5-93" value="finding player/match&lt;br&gt;(loading screen)" style="rounded=1;whiteSpace=wrap;html=1;labelBackgroundColor=none;" vertex="1" parent="1">
          <mxGeometry x="2750" y="1115" width="140" height="290" as="geometry" />
        </mxCell>
        <mxCell id="XQ3u0GxdHT3JZlndSvd5-94" value="" style="group" vertex="1" connectable="0" parent="1">
          <mxGeometry x="2450" y="979" width="140" height="318" as="geometry" />
        </mxCell>
        <mxCell id="XQ3u0GxdHT3JZlndSvd5-95" value="" style="rounded=1;whiteSpace=wrap;html=1;labelBackgroundColor=none;" vertex="1" parent="XQ3u0GxdHT3JZlndSvd5-94">
          <mxGeometry y="-12" width="140" height="290" as="geometry" />
        </mxCell>
        <mxCell id="XQ3u0GxdHT3JZlndSvd5-96" value="Enter invitation code" style="rounded=1;whiteSpace=wrap;html=1;labelBackgroundColor=none;" vertex="1" parent="XQ3u0GxdHT3JZlndSvd5-94">
          <mxGeometry x="11" y="100.5" width="118" height="41" as="geometry" />
        </mxCell>
        <mxCell id="XQ3u0GxdHT3JZlndSvd5-97" value="&lt;font color=&quot;#ffffff&quot;&gt;match and play&lt;/font&gt;" style="rounded=1;whiteSpace=wrap;html=1;labelBackgroundColor=none;fillColor=#000000;" vertex="1" parent="XQ3u0GxdHT3JZlndSvd5-94">
          <mxGeometry x="11" y="152.5" width="118" height="30" as="geometry" />
        </mxCell>
        <mxCell id="XQ3u0GxdHT3JZlndSvd5-98" value="&lt;div style=&quot;text-align: center;&quot;&gt;&lt;span style=&quot;font-size: 11px; background-color: rgb(255, 255, 255);&quot;&gt;Join Invitation Page&lt;/span&gt;&lt;/div&gt;" style="text;whiteSpace=wrap;html=1;labelBackgroundColor=none;rounded=1;fontStyle=1" vertex="1" parent="XQ3u0GxdHT3JZlndSvd5-94">
          <mxGeometry x="11" y="278" width="115" height="40" as="geometry" />
        </mxCell>
        <mxCell id="XQ3u0GxdHT3JZlndSvd5-99" value="" style="group" vertex="1" connectable="0" parent="1">
          <mxGeometry x="2450" y="1287" width="140" height="290" as="geometry" />
        </mxCell>
        <mxCell id="XQ3u0GxdHT3JZlndSvd5-100" value="" style="rounded=1;whiteSpace=wrap;html=1;labelBackgroundColor=none;" vertex="1" parent="XQ3u0GxdHT3JZlndSvd5-99">
          <mxGeometry width="140" height="290" as="geometry" />
        </mxCell>
        <mxCell id="XQ3u0GxdHT3JZlndSvd5-101" value="Generate Invitation code and share&amp;nbsp;" style="rounded=1;whiteSpace=wrap;html=1;labelBackgroundColor=none;" vertex="1" parent="XQ3u0GxdHT3JZlndSvd5-99">
          <mxGeometry x="11" y="100.5" width="118" height="41" as="geometry" />
        </mxCell>
        <mxCell id="XQ3u0GxdHT3JZlndSvd5-102" value="&lt;font color=&quot;#ffffff&quot;&gt;match and play&lt;/font&gt;" style="rounded=1;whiteSpace=wrap;html=1;labelBackgroundColor=none;fillColor=#000000;" vertex="1" parent="XQ3u0GxdHT3JZlndSvd5-99">
          <mxGeometry x="11" y="152.5" width="118" height="30" as="geometry" />
        </mxCell>
        <mxCell id="XQ3u0GxdHT3JZlndSvd5-103" value="hfa98y" style="text;html=1;strokeColor=none;fillColor=none;align=center;verticalAlign=middle;whiteSpace=wrap;rounded=0;" vertex="1" parent="XQ3u0GxdHT3JZlndSvd5-99">
          <mxGeometry x="40" y="62" width="60" height="30" as="geometry" />
        </mxCell>
        <mxCell id="XQ3u0GxdHT3JZlndSvd5-104" style="edgeStyle=orthogonalEdgeStyle;rounded=1;orthogonalLoop=1;jettySize=auto;html=1;exitX=1;exitY=0.5;exitDx=0;exitDy=0;entryX=-0.002;entryY=0.463;entryDx=0;entryDy=0;entryPerimeter=0;" edge="1" parent="1" source="XQ3u0GxdHT3JZlndSvd5-95" target="XQ3u0GxdHT3JZlndSvd5-93">
          <mxGeometry relative="1" as="geometry" />
        </mxCell>
        <mxCell id="XQ3u0GxdHT3JZlndSvd5-105" style="edgeStyle=orthogonalEdgeStyle;rounded=1;orthogonalLoop=1;jettySize=auto;html=1;exitX=1;exitY=0.5;exitDx=0;exitDy=0;entryX=-0.026;entryY=0.595;entryDx=0;entryDy=0;entryPerimeter=0;" edge="1" parent="1" source="XQ3u0GxdHT3JZlndSvd5-100" target="XQ3u0GxdHT3JZlndSvd5-93">
          <mxGeometry relative="1" as="geometry" />
        </mxCell>
        <mxCell id="XQ3u0GxdHT3JZlndSvd5-106" value="" style="group" vertex="1" connectable="0" parent="1">
          <mxGeometry x="2750" y="1529" width="140" height="290" as="geometry" />
        </mxCell>
        <mxCell id="XQ3u0GxdHT3JZlndSvd5-107" value="" style="rounded=1;whiteSpace=wrap;html=1;labelBackgroundColor=none;" vertex="1" parent="XQ3u0GxdHT3JZlndSvd5-106">
          <mxGeometry width="140" height="290" as="geometry" />
        </mxCell>
        <mxCell id="XQ3u0GxdHT3JZlndSvd5-108" value="" style="shape=table;startSize=0;container=1;collapsible=0;childLayout=tableLayout;" vertex="1" parent="XQ3u0GxdHT3JZlndSvd5-106">
          <mxGeometry x="15" y="105.5" width="114" height="114" as="geometry" />
        </mxCell>
        <mxCell id="XQ3u0GxdHT3JZlndSvd5-109" value="" style="shape=tableRow;horizontal=0;startSize=0;swimlaneHead=0;swimlaneBody=0;strokeColor=inherit;top=0;left=0;bottom=0;right=0;collapsible=0;dropTarget=0;fillColor=none;points=[[0,0.5],[1,0.5]];portConstraint=eastwest;" vertex="1" parent="XQ3u0GxdHT3JZlndSvd5-108">
          <mxGeometry width="114" height="38" as="geometry" />
        </mxCell>
        <mxCell id="XQ3u0GxdHT3JZlndSvd5-110" value="" style="shape=partialRectangle;html=1;whiteSpace=wrap;connectable=0;strokeColor=inherit;overflow=hidden;fillColor=none;top=0;left=0;bottom=0;right=0;pointerEvents=1;" vertex="1" parent="XQ3u0GxdHT3JZlndSvd5-109">
          <mxGeometry width="38" height="38" as="geometry">
            <mxRectangle width="38" height="38" as="alternateBounds" />
          </mxGeometry>
        </mxCell>
        <mxCell id="XQ3u0GxdHT3JZlndSvd5-111" value="" style="shape=partialRectangle;html=1;whiteSpace=wrap;connectable=0;strokeColor=inherit;overflow=hidden;fillColor=none;top=0;left=0;bottom=0;right=0;pointerEvents=1;" vertex="1" parent="XQ3u0GxdHT3JZlndSvd5-109">
          <mxGeometry x="38" width="38" height="38" as="geometry">
            <mxRectangle width="38" height="38" as="alternateBounds" />
          </mxGeometry>
        </mxCell>
        <mxCell id="XQ3u0GxdHT3JZlndSvd5-112" value="" style="shape=partialRectangle;html=1;whiteSpace=wrap;connectable=0;strokeColor=inherit;overflow=hidden;fillColor=none;top=0;left=0;bottom=0;right=0;pointerEvents=1;" vertex="1" parent="XQ3u0GxdHT3JZlndSvd5-109">
          <mxGeometry x="76" width="38" height="38" as="geometry">
            <mxRectangle width="38" height="38" as="alternateBounds" />
          </mxGeometry>
        </mxCell>
        <mxCell id="XQ3u0GxdHT3JZlndSvd5-113" value="" style="shape=tableRow;horizontal=0;startSize=0;swimlaneHead=0;swimlaneBody=0;strokeColor=inherit;top=0;left=0;bottom=0;right=0;collapsible=0;dropTarget=0;fillColor=none;points=[[0,0.5],[1,0.5]];portConstraint=eastwest;" vertex="1" parent="XQ3u0GxdHT3JZlndSvd5-108">
          <mxGeometry y="38" width="114" height="38" as="geometry" />
        </mxCell>
        <mxCell id="XQ3u0GxdHT3JZlndSvd5-114" value="" style="shape=partialRectangle;html=1;whiteSpace=wrap;connectable=0;strokeColor=inherit;overflow=hidden;fillColor=none;top=0;left=0;bottom=0;right=0;pointerEvents=1;" vertex="1" parent="XQ3u0GxdHT3JZlndSvd5-113">
          <mxGeometry width="38" height="38" as="geometry">
            <mxRectangle width="38" height="38" as="alternateBounds" />
          </mxGeometry>
        </mxCell>
        <mxCell id="XQ3u0GxdHT3JZlndSvd5-115" value="" style="shape=partialRectangle;html=1;whiteSpace=wrap;connectable=0;strokeColor=inherit;overflow=hidden;fillColor=none;top=0;left=0;bottom=0;right=0;pointerEvents=1;" vertex="1" parent="XQ3u0GxdHT3JZlndSvd5-113">
          <mxGeometry x="38" width="38" height="38" as="geometry">
            <mxRectangle width="38" height="38" as="alternateBounds" />
          </mxGeometry>
        </mxCell>
        <mxCell id="XQ3u0GxdHT3JZlndSvd5-116" value="" style="shape=partialRectangle;html=1;whiteSpace=wrap;connectable=0;strokeColor=inherit;overflow=hidden;fillColor=none;top=0;left=0;bottom=0;right=0;pointerEvents=1;" vertex="1" parent="XQ3u0GxdHT3JZlndSvd5-113">
          <mxGeometry x="76" width="38" height="38" as="geometry">
            <mxRectangle width="38" height="38" as="alternateBounds" />
          </mxGeometry>
        </mxCell>
        <mxCell id="XQ3u0GxdHT3JZlndSvd5-117" value="" style="shape=tableRow;horizontal=0;startSize=0;swimlaneHead=0;swimlaneBody=0;strokeColor=inherit;top=0;left=0;bottom=0;right=0;collapsible=0;dropTarget=0;fillColor=none;points=[[0,0.5],[1,0.5]];portConstraint=eastwest;" vertex="1" parent="XQ3u0GxdHT3JZlndSvd5-108">
          <mxGeometry y="76" width="114" height="38" as="geometry" />
        </mxCell>
        <mxCell id="XQ3u0GxdHT3JZlndSvd5-118" value="" style="shape=partialRectangle;html=1;whiteSpace=wrap;connectable=0;strokeColor=inherit;overflow=hidden;fillColor=none;top=0;left=0;bottom=0;right=0;pointerEvents=1;" vertex="1" parent="XQ3u0GxdHT3JZlndSvd5-117">
          <mxGeometry width="38" height="38" as="geometry">
            <mxRectangle width="38" height="38" as="alternateBounds" />
          </mxGeometry>
        </mxCell>
        <mxCell id="XQ3u0GxdHT3JZlndSvd5-119" value="" style="shape=partialRectangle;html=1;whiteSpace=wrap;connectable=0;strokeColor=inherit;overflow=hidden;fillColor=none;top=0;left=0;bottom=0;right=0;pointerEvents=1;" vertex="1" parent="XQ3u0GxdHT3JZlndSvd5-117">
          <mxGeometry x="38" width="38" height="38" as="geometry">
            <mxRectangle width="38" height="38" as="alternateBounds" />
          </mxGeometry>
        </mxCell>
        <mxCell id="XQ3u0GxdHT3JZlndSvd5-120" value="" style="shape=partialRectangle;html=1;whiteSpace=wrap;connectable=0;strokeColor=inherit;overflow=hidden;fillColor=none;top=0;left=0;bottom=0;right=0;pointerEvents=1;" vertex="1" parent="XQ3u0GxdHT3JZlndSvd5-117">
          <mxGeometry x="76" width="38" height="38" as="geometry">
            <mxRectangle width="38" height="38" as="alternateBounds" />
          </mxGeometry>
        </mxCell>
        <mxCell id="XQ3u0GxdHT3JZlndSvd5-121" value="player1&lt;br&gt;(score)" style="text;html=1;align=center;verticalAlign=middle;resizable=0;points=[];autosize=1;strokeColor=none;fillColor=none;" vertex="1" parent="XQ3u0GxdHT3JZlndSvd5-106">
          <mxGeometry x="5" y="37.5" width="60" height="40" as="geometry" />
        </mxCell>
        <mxCell id="XQ3u0GxdHT3JZlndSvd5-122" value="player2&lt;br&gt;(score)" style="text;html=1;align=center;verticalAlign=middle;resizable=0;points=[];autosize=1;strokeColor=none;fillColor=none;" vertex="1" parent="XQ3u0GxdHT3JZlndSvd5-106">
          <mxGeometry x="77" y="37.5" width="60" height="40" as="geometry" />
        </mxCell>
        <mxCell id="XQ3u0GxdHT3JZlndSvd5-123" value="vs" style="text;html=1;align=center;verticalAlign=middle;resizable=0;points=[];autosize=1;strokeColor=none;fillColor=none;" vertex="1" parent="XQ3u0GxdHT3JZlndSvd5-106">
          <mxGeometry x="55" y="49.5" width="30" height="26" as="geometry" />
        </mxCell>
        <mxCell id="XQ3u0GxdHT3JZlndSvd5-182" value="game session: 1" style="text;html=1;align=center;verticalAlign=middle;resizable=0;points=[];autosize=1;strokeColor=none;fillColor=none;" vertex="1" parent="XQ3u0GxdHT3JZlndSvd5-106">
          <mxGeometry x="15" y="14.5" width="110" height="30" as="geometry" />
        </mxCell>
        <mxCell id="XQ3u0GxdHT3JZlndSvd5-128" value="on match end" style="edgeLabel;html=1;align=center;verticalAlign=middle;resizable=0;points=[];" vertex="1" connectable="0" parent="1">
          <mxGeometry x="2919.998896436356" y="1848.9965529576593" as="geometry" />
        </mxCell>
        <mxCell id="XQ3u0GxdHT3JZlndSvd5-129" style="edgeStyle=orthogonalEdgeStyle;rounded=1;orthogonalLoop=1;jettySize=auto;html=1;exitX=0.5;exitY=1;exitDx=0;exitDy=0;entryX=0.466;entryY=1.001;entryDx=0;entryDy=0;entryPerimeter=0;" edge="1" parent="1" source="XQ3u0GxdHT3JZlndSvd5-107" target="XQ3u0GxdHT3JZlndSvd5-164">
          <mxGeometry relative="1" as="geometry">
            <mxPoint x="3020" y="1819" as="targetPoint" />
          </mxGeometry>
        </mxCell>
        <mxCell id="XQ3u0GxdHT3JZlndSvd5-133" value="&lt;div style=&quot;text-align: center;&quot;&gt;&lt;span style=&quot;font-size: 11px; background-color: rgb(255, 255, 255);&quot;&gt;Personal Game Record Page&lt;/span&gt;&lt;/div&gt;" style="text;whiteSpace=wrap;html=1;labelBackgroundColor=none;rounded=1;fontStyle=1" vertex="1" parent="1">
          <mxGeometry x="2146.44" y="1839" width="115" height="40" as="geometry" />
        </mxCell>
        <mxCell id="XQ3u0GxdHT3JZlndSvd5-134" value="&lt;div style=&quot;text-align: center;&quot;&gt;&lt;span style=&quot;font-size: 11px; background-color: rgb(255, 255, 255);&quot;&gt;Leaderboard Page&lt;/span&gt;&lt;/div&gt;" style="text;whiteSpace=wrap;html=1;labelBackgroundColor=none;rounded=1;fontStyle=1" vertex="1" parent="1">
          <mxGeometry x="2158.94" y="1481" width="115" height="40" as="geometry" />
        </mxCell>
        <mxCell id="XQ3u0GxdHT3JZlndSvd5-135" value="&lt;div style=&quot;text-align: center;&quot;&gt;&lt;span style=&quot;font-size: 11px; background-color: rgb(255, 255, 255);&quot;&gt;Invitation Page&lt;/span&gt;&lt;/div&gt;" style="text;whiteSpace=wrap;html=1;labelBackgroundColor=none;rounded=1;fontStyle=1" vertex="1" parent="1">
          <mxGeometry x="2480" y="1579" width="115" height="40" as="geometry" />
        </mxCell>
        <mxCell id="XQ3u0GxdHT3JZlndSvd5-136" value="&lt;span style=&quot;color: rgb(0, 0, 0); font-family: Helvetica; font-size: 11px; font-style: normal; font-variant-ligatures: normal; font-variant-caps: normal; font-weight: 700; letter-spacing: normal; orphans: 2; text-align: center; text-indent: 0px; text-transform: none; widows: 2; word-spacing: 0px; -webkit-text-stroke-width: 0px; background-color: rgb(255, 255, 255); text-decoration-thickness: initial; text-decoration-style: initial; text-decoration-color: initial; float: none; display: inline !important;&quot;&gt;Game Loading Page&lt;/span&gt;" style="text;whiteSpace=wrap;html=1;" vertex="1" parent="1">
          <mxGeometry x="2710" y="1079" width="120" height="30" as="geometry" />
        </mxCell>
        <mxCell id="XQ3u0GxdHT3JZlndSvd5-137" value="&lt;span style=&quot;color: rgb(0, 0, 0); font-family: Helvetica; font-size: 11px; font-style: normal; font-variant-ligatures: normal; font-variant-caps: normal; font-weight: 700; letter-spacing: normal; orphans: 2; text-align: center; text-indent: 0px; text-transform: none; widows: 2; word-spacing: 0px; -webkit-text-stroke-width: 0px; background-color: rgb(255, 255, 255); text-decoration-thickness: initial; text-decoration-style: initial; text-decoration-color: initial; float: none; display: inline !important;&quot;&gt;The Game Page&lt;/span&gt;" style="text;whiteSpace=wrap;html=1;" vertex="1" parent="1">
          <mxGeometry x="2720" y="1499" width="140" height="40" as="geometry" />
        </mxCell>
        <mxCell id="XQ3u0GxdHT3JZlndSvd5-139" value="&lt;br&gt;" style="rounded=1;whiteSpace=wrap;html=1;labelBackgroundColor=none;" vertex="1" parent="1">
          <mxGeometry x="3240" y="805.5" width="140" height="290" as="geometry" />
        </mxCell>
        <mxCell id="XQ3u0GxdHT3JZlndSvd5-140" value="&lt;span style=&quot;color: rgb(0, 0, 0); font-family: Helvetica; font-size: 11px; font-style: normal; font-variant-ligatures: normal; font-variant-caps: normal; font-weight: 700; letter-spacing: normal; orphans: 2; text-align: center; text-indent: 0px; text-transform: none; widows: 2; word-spacing: 0px; -webkit-text-stroke-width: 0px; background-color: rgb(255, 255, 255); text-decoration-thickness: initial; text-decoration-style: initial; text-decoration-color: initial; float: none; display: inline !important;&quot;&gt;User Profile Page&lt;/span&gt;" style="text;whiteSpace=wrap;html=1;" vertex="1" parent="1">
          <mxGeometry x="3260" y="1099" width="120" height="30" as="geometry" />
        </mxCell>
        <mxCell id="XQ3u0GxdHT3JZlndSvd5-141" value="&lt;font style=&quot;font-size: 9px;&quot;&gt;image&lt;/font&gt;" style="whiteSpace=wrap;html=1;aspect=fixed;labelBackgroundColor=none;rounded=1;" vertex="1" parent="1">
          <mxGeometry x="1841.96" y="1589" width="48" height="48" as="geometry" />
        </mxCell>
        <mxCell id="XQ3u0GxdHT3JZlndSvd5-142" value="" style="rounded=1;whiteSpace=wrap;html=1;labelBackgroundColor=none;" vertex="1" parent="1">
          <mxGeometry x="1540" y="1209" width="140" height="290" as="geometry" />
        </mxCell>
        <mxCell id="XQ3u0GxdHT3JZlndSvd5-143" value="" style="rounded=1;whiteSpace=wrap;html=1;labelBackgroundColor=none;" vertex="1" parent="1">
          <mxGeometry x="1791" y="1191" width="140" height="290" as="geometry" />
        </mxCell>
        <mxCell id="XQ3u0GxdHT3JZlndSvd5-144" value="&lt;span style=&quot;color: rgb(0, 0, 0); font-family: Helvetica; font-size: 11px; font-style: normal; font-variant-ligatures: normal; font-variant-caps: normal; font-weight: 400; letter-spacing: normal; orphans: 2; text-align: center; text-indent: 0px; text-transform: none; widows: 2; word-spacing: 0px; -webkit-text-stroke-width: 0px; background-color: rgb(255, 255, 255); text-decoration-thickness: initial; text-decoration-style: initial; text-decoration-color: initial; float: none; display: inline !important;&quot;&gt;Application Name&lt;/span&gt;" style="text;whiteSpace=wrap;html=1;labelBackgroundColor=none;rounded=1;" vertex="1" parent="1">
          <mxGeometry x="1816" y="1201" width="90" height="40" as="geometry" />
        </mxCell>
        <mxCell id="XQ3u0GxdHT3JZlndSvd5-145" value="&lt;span style=&quot;color: rgb(0, 0, 0); font-family: Helvetica; font-size: 11px; font-style: normal; font-variant-ligatures: normal; font-variant-caps: normal; font-weight: 400; letter-spacing: normal; orphans: 2; text-align: center; text-indent: 0px; text-transform: none; widows: 2; word-spacing: 0px; -webkit-text-stroke-width: 0px; background-color: rgb(255, 255, 255); text-decoration-thickness: initial; text-decoration-style: initial; text-decoration-color: initial; float: none; display: inline !important;&quot;&gt;Welcome text&lt;/span&gt;" style="text;whiteSpace=wrap;html=1;labelBackgroundColor=none;rounded=1;" vertex="1" parent="1">
          <mxGeometry x="1823.5" y="1251" width="75" height="40" as="geometry" />
        </mxCell>
        <mxCell id="XQ3u0GxdHT3JZlndSvd5-146" value="email input" style="rounded=1;whiteSpace=wrap;html=1;labelBackgroundColor=none;" vertex="1" parent="1">
          <mxGeometry x="1801" y="1291" width="120" height="20" as="geometry" />
        </mxCell>
        <mxCell id="XQ3u0GxdHT3JZlndSvd5-147" value="password input" style="rounded=1;whiteSpace=wrap;html=1;labelBackgroundColor=none;" vertex="1" parent="1">
          <mxGeometry x="1800" y="1319" width="120" height="20" as="geometry" />
        </mxCell>
        <mxCell id="XQ3u0GxdHT3JZlndSvd5-148" value="&lt;font color=&quot;#ffffff&quot;&gt;Login&lt;/font&gt;" style="rounded=1;whiteSpace=wrap;html=1;labelBackgroundColor=none;fillColor=#000000;" vertex="1" parent="1">
          <mxGeometry x="1801" y="1391" width="120" height="20" as="geometry" />
        </mxCell>
        <mxCell id="XQ3u0GxdHT3JZlndSvd5-149" value="create an account" style="text;html=1;align=center;verticalAlign=middle;resizable=0;points=[];autosize=1;strokeColor=default;fillColor=none;labelBackgroundColor=none;rounded=1;" vertex="1" parent="1">
          <mxGeometry x="1804.5" y="1419" width="113" height="26" as="geometry" />
        </mxCell>
        <mxCell id="XQ3u0GxdHT3JZlndSvd5-150" value="&lt;p style=&quot;line-height: 70%;&quot;&gt;&lt;font style=&quot;font-size: 10px;&quot;&gt;reset password&lt;/font&gt;&lt;/p&gt;" style="rounded=1;whiteSpace=wrap;html=1;labelBackgroundColor=none;" vertex="1" parent="1">
          <mxGeometry x="1850" y="1349" width="70" height="20" as="geometry" />
        </mxCell>
        <mxCell id="XQ3u0GxdHT3JZlndSvd5-151" value="" style="curved=1;endArrow=classic;html=1;rounded=0;exitX=0.383;exitY=0.978;exitDx=0;exitDy=0;exitPerimeter=0;" edge="1" parent="1" source="XQ3u0GxdHT3JZlndSvd5-152">
          <mxGeometry width="50" height="50" relative="1" as="geometry">
            <mxPoint x="1790" y="1355" as="sourcePoint" />
            <mxPoint x="1790" y="1247" as="targetPoint" />
            <Array as="points">
              <mxPoint x="1730" y="1331" />
              <mxPoint x="1730" y="1259" />
            </Array>
          </mxGeometry>
        </mxCell>
        <mxCell id="XQ3u0GxdHT3JZlndSvd5-152" value="&lt;span style=&quot;color: rgb(0, 0, 0); font-family: Helvetica; font-size: 11px; font-style: normal; font-variant-ligatures: normal; font-variant-caps: normal; font-weight: 400; letter-spacing: normal; orphans: 2; text-align: center; text-indent: 0px; text-transform: none; widows: 2; word-spacing: 0px; -webkit-text-stroke-width: 0px; background-color: rgb(251, 251, 251); text-decoration-thickness: initial; text-decoration-style: initial; text-decoration-color: initial; float: none; display: inline !important;&quot;&gt;&amp;nbsp; On login failure&amp;nbsp;&amp;nbsp;&lt;/span&gt;" style="text;whiteSpace=wrap;html=1;direction=north;" vertex="1" parent="1">
          <mxGeometry x="1751" y="1271" width="40" height="120" as="geometry" />
        </mxCell>
        <mxCell id="XQ3u0GxdHT3JZlndSvd5-153" style="edgeStyle=orthogonalEdgeStyle;rounded=0;orthogonalLoop=1;jettySize=auto;html=1;exitX=0;exitY=0.5;exitDx=0;exitDy=0;entryX=0.987;entryY=0.519;entryDx=0;entryDy=0;entryPerimeter=0;" edge="1" parent="1" source="XQ3u0GxdHT3JZlndSvd5-150" target="XQ3u0GxdHT3JZlndSvd5-142">
          <mxGeometry relative="1" as="geometry" />
        </mxCell>
        <mxCell id="XQ3u0GxdHT3JZlndSvd5-154" value="enter email" style="rounded=1;whiteSpace=wrap;html=1;labelBackgroundColor=none;" vertex="1" parent="1">
          <mxGeometry x="1550" y="1326" width="120" height="20" as="geometry" />
        </mxCell>
        <mxCell id="XQ3u0GxdHT3JZlndSvd5-155" value="&lt;font color=&quot;#ffffff&quot;&gt;reset password&lt;/font&gt;" style="rounded=1;whiteSpace=wrap;html=1;labelBackgroundColor=none;fillColor=#000000;" vertex="1" parent="1">
          <mxGeometry x="1550" y="1359" width="120" height="20" as="geometry" />
        </mxCell>
        <mxCell id="XQ3u0GxdHT3JZlndSvd5-156" value="&lt;font color=&quot;#ffffff&quot;&gt;update&lt;/font&gt;" style="rounded=1;whiteSpace=wrap;html=1;labelBackgroundColor=none;fillColor=#000000;" vertex="1" parent="1">
          <mxGeometry x="3250" y="1001.96" width="120" height="30" as="geometry" />
        </mxCell>
        <mxCell id="XQ3u0GxdHT3JZlndSvd5-157" value="&lt;font style=&quot;font-size: 9px;&quot;&gt;image&lt;/font&gt;" style="whiteSpace=wrap;html=1;aspect=fixed;labelBackgroundColor=none;rounded=1;" vertex="1" parent="1">
          <mxGeometry x="3286" y="830" width="48" height="48" as="geometry" />
        </mxCell>
        <mxCell id="XQ3u0GxdHT3JZlndSvd5-158" value="" style="group" vertex="1" connectable="0" parent="1">
          <mxGeometry x="3320" y="861" width="20" height="18" as="geometry" />
        </mxCell>
        <mxCell id="XQ3u0GxdHT3JZlndSvd5-159" value="" style="ellipse;whiteSpace=wrap;html=1;aspect=fixed;fillColor=#000000;" vertex="1" parent="XQ3u0GxdHT3JZlndSvd5-158">
          <mxGeometry width="18" height="18" as="geometry" />
        </mxCell>
        <mxCell id="XQ3u0GxdHT3JZlndSvd5-160" value="" style="shape=image;html=1;verticalAlign=top;verticalLabelPosition=bottom;labelBackgroundColor=#ffffff;imageAspect=0;aspect=fixed;image=https://cdn0.iconfinder.com/data/icons/evericons-24px-vol-1/24/pencil-create-128.png" vertex="1" parent="XQ3u0GxdHT3JZlndSvd5-158">
          <mxGeometry x="2.5806451612903225" y="2.3225806451612905" width="13.35483870967742" height="13.35483870967742" as="geometry" />
        </mxCell>
        <mxCell id="XQ3u0GxdHT3JZlndSvd5-161" value="email" style="rounded=1;whiteSpace=wrap;html=1;" vertex="1" parent="1">
          <mxGeometry x="3265" y="895.25" width="90" height="15" as="geometry" />
        </mxCell>
        <mxCell id="XQ3u0GxdHT3JZlndSvd5-162" value="name" style="rounded=1;whiteSpace=wrap;html=1;" vertex="1" parent="1">
          <mxGeometry x="3265" y="917.75" width="90" height="15" as="geometry" />
        </mxCell>
        <mxCell id="XQ3u0GxdHT3JZlndSvd5-163" value="" style="group" vertex="1" connectable="0" parent="1">
          <mxGeometry x="2950" y="1520.96" width="140" height="290" as="geometry" />
        </mxCell>
        <mxCell id="XQ3u0GxdHT3JZlndSvd5-164" value="" style="rounded=1;whiteSpace=wrap;html=1;labelBackgroundColor=none;" vertex="1" parent="XQ3u0GxdHT3JZlndSvd5-163">
          <mxGeometry width="140" height="290" as="geometry" />
        </mxCell>
        <mxCell id="XQ3u0GxdHT3JZlndSvd5-165" value="" style="shape=table;startSize=0;container=1;collapsible=0;childLayout=tableLayout;" vertex="1" parent="XQ3u0GxdHT3JZlndSvd5-163">
          <mxGeometry x="15" y="105.5" width="114" height="114" as="geometry" />
        </mxCell>
        <mxCell id="XQ3u0GxdHT3JZlndSvd5-166" value="" style="shape=tableRow;horizontal=0;startSize=0;swimlaneHead=0;swimlaneBody=0;strokeColor=inherit;top=0;left=0;bottom=0;right=0;collapsible=0;dropTarget=0;fillColor=none;points=[[0,0.5],[1,0.5]];portConstraint=eastwest;" vertex="1" parent="XQ3u0GxdHT3JZlndSvd5-165">
          <mxGeometry width="114" height="38" as="geometry" />
        </mxCell>
        <mxCell id="XQ3u0GxdHT3JZlndSvd5-167" value="" style="shape=partialRectangle;html=1;whiteSpace=wrap;connectable=0;strokeColor=inherit;overflow=hidden;fillColor=none;top=0;left=0;bottom=0;right=0;pointerEvents=1;" vertex="1" parent="XQ3u0GxdHT3JZlndSvd5-166">
          <mxGeometry width="38" height="38" as="geometry">
            <mxRectangle width="38" height="38" as="alternateBounds" />
          </mxGeometry>
        </mxCell>
        <mxCell id="XQ3u0GxdHT3JZlndSvd5-168" value="" style="shape=partialRectangle;html=1;whiteSpace=wrap;connectable=0;strokeColor=inherit;overflow=hidden;fillColor=none;top=0;left=0;bottom=0;right=0;pointerEvents=1;" vertex="1" parent="XQ3u0GxdHT3JZlndSvd5-166">
          <mxGeometry x="38" width="38" height="38" as="geometry">
            <mxRectangle width="38" height="38" as="alternateBounds" />
          </mxGeometry>
        </mxCell>
        <mxCell id="XQ3u0GxdHT3JZlndSvd5-169" value="" style="shape=partialRectangle;html=1;whiteSpace=wrap;connectable=0;strokeColor=inherit;overflow=hidden;fillColor=none;top=0;left=0;bottom=0;right=0;pointerEvents=1;" vertex="1" parent="XQ3u0GxdHT3JZlndSvd5-166">
          <mxGeometry x="76" width="38" height="38" as="geometry">
            <mxRectangle width="38" height="38" as="alternateBounds" />
          </mxGeometry>
        </mxCell>
        <mxCell id="XQ3u0GxdHT3JZlndSvd5-170" value="" style="shape=tableRow;horizontal=0;startSize=0;swimlaneHead=0;swimlaneBody=0;strokeColor=inherit;top=0;left=0;bottom=0;right=0;collapsible=0;dropTarget=0;fillColor=none;points=[[0,0.5],[1,0.5]];portConstraint=eastwest;" vertex="1" parent="XQ3u0GxdHT3JZlndSvd5-165">
          <mxGeometry y="38" width="114" height="38" as="geometry" />
        </mxCell>
        <mxCell id="XQ3u0GxdHT3JZlndSvd5-171" value="" style="shape=partialRectangle;html=1;whiteSpace=wrap;connectable=0;strokeColor=inherit;overflow=hidden;fillColor=none;top=0;left=0;bottom=0;right=0;pointerEvents=1;" vertex="1" parent="XQ3u0GxdHT3JZlndSvd5-170">
          <mxGeometry width="38" height="38" as="geometry">
            <mxRectangle width="38" height="38" as="alternateBounds" />
          </mxGeometry>
        </mxCell>
        <mxCell id="XQ3u0GxdHT3JZlndSvd5-172" value="" style="shape=partialRectangle;html=1;whiteSpace=wrap;connectable=0;strokeColor=inherit;overflow=hidden;fillColor=none;top=0;left=0;bottom=0;right=0;pointerEvents=1;" vertex="1" parent="XQ3u0GxdHT3JZlndSvd5-170">
          <mxGeometry x="38" width="38" height="38" as="geometry">
            <mxRectangle width="38" height="38" as="alternateBounds" />
          </mxGeometry>
        </mxCell>
        <mxCell id="XQ3u0GxdHT3JZlndSvd5-173" value="" style="shape=partialRectangle;html=1;whiteSpace=wrap;connectable=0;strokeColor=inherit;overflow=hidden;fillColor=none;top=0;left=0;bottom=0;right=0;pointerEvents=1;" vertex="1" parent="XQ3u0GxdHT3JZlndSvd5-170">
          <mxGeometry x="76" width="38" height="38" as="geometry">
            <mxRectangle width="38" height="38" as="alternateBounds" />
          </mxGeometry>
        </mxCell>
        <mxCell id="XQ3u0GxdHT3JZlndSvd5-174" value="" style="shape=tableRow;horizontal=0;startSize=0;swimlaneHead=0;swimlaneBody=0;strokeColor=inherit;top=0;left=0;bottom=0;right=0;collapsible=0;dropTarget=0;fillColor=none;points=[[0,0.5],[1,0.5]];portConstraint=eastwest;" vertex="1" parent="XQ3u0GxdHT3JZlndSvd5-165">
          <mxGeometry y="76" width="114" height="38" as="geometry" />
        </mxCell>
        <mxCell id="XQ3u0GxdHT3JZlndSvd5-175" value="" style="shape=partialRectangle;html=1;whiteSpace=wrap;connectable=0;strokeColor=inherit;overflow=hidden;fillColor=none;top=0;left=0;bottom=0;right=0;pointerEvents=1;" vertex="1" parent="XQ3u0GxdHT3JZlndSvd5-174">
          <mxGeometry width="38" height="38" as="geometry">
            <mxRectangle width="38" height="38" as="alternateBounds" />
          </mxGeometry>
        </mxCell>
        <mxCell id="XQ3u0GxdHT3JZlndSvd5-176" value="" style="shape=partialRectangle;html=1;whiteSpace=wrap;connectable=0;strokeColor=inherit;overflow=hidden;fillColor=none;top=0;left=0;bottom=0;right=0;pointerEvents=1;" vertex="1" parent="XQ3u0GxdHT3JZlndSvd5-174">
          <mxGeometry x="38" width="38" height="38" as="geometry">
            <mxRectangle width="38" height="38" as="alternateBounds" />
          </mxGeometry>
        </mxCell>
        <mxCell id="XQ3u0GxdHT3JZlndSvd5-177" value="" style="shape=partialRectangle;html=1;whiteSpace=wrap;connectable=0;strokeColor=inherit;overflow=hidden;fillColor=none;top=0;left=0;bottom=0;right=0;pointerEvents=1;" vertex="1" parent="XQ3u0GxdHT3JZlndSvd5-174">
          <mxGeometry x="76" width="38" height="38" as="geometry">
            <mxRectangle width="38" height="38" as="alternateBounds" />
          </mxGeometry>
        </mxCell>
        <mxCell id="XQ3u0GxdHT3JZlndSvd5-178" value="player1&lt;br&gt;(score)" style="text;html=1;align=center;verticalAlign=middle;resizable=0;points=[];autosize=1;strokeColor=none;fillColor=none;" vertex="1" parent="XQ3u0GxdHT3JZlndSvd5-163">
          <mxGeometry x="5" y="37.5" width="60" height="40" as="geometry" />
        </mxCell>
        <mxCell id="XQ3u0GxdHT3JZlndSvd5-179" value="player2&lt;br&gt;(score)" style="text;html=1;align=center;verticalAlign=middle;resizable=0;points=[];autosize=1;strokeColor=none;fillColor=none;" vertex="1" parent="XQ3u0GxdHT3JZlndSvd5-163">
          <mxGeometry x="77" y="37.5" width="60" height="40" as="geometry" />
        </mxCell>
        <mxCell id="XQ3u0GxdHT3JZlndSvd5-180" value="vs" style="text;html=1;align=center;verticalAlign=middle;resizable=0;points=[];autosize=1;strokeColor=none;fillColor=none;" vertex="1" parent="XQ3u0GxdHT3JZlndSvd5-163">
          <mxGeometry x="55" y="49.5" width="30" height="26" as="geometry" />
        </mxCell>
        <mxCell id="XQ3u0GxdHT3JZlndSvd5-183" value="game session: 1" style="text;html=1;align=center;verticalAlign=middle;resizable=0;points=[];autosize=1;strokeColor=none;fillColor=none;" vertex="1" parent="XQ3u0GxdHT3JZlndSvd5-163">
          <mxGeometry x="10" y="19.5" width="110" height="30" as="geometry" />
        </mxCell>
        <mxCell id="XQ3u0GxdHT3JZlndSvd5-185" value="&lt;font color=&quot;#ffffff&quot;&gt;quit game&lt;br&gt;&lt;/font&gt;" style="rounded=1;whiteSpace=wrap;html=1;fillColor=#000000;" vertex="1" parent="XQ3u0GxdHT3JZlndSvd5-163">
          <mxGeometry x="74.5" y="239.04" width="55" height="20.96" as="geometry" />
        </mxCell>
        <mxCell id="XQ3u0GxdHT3JZlndSvd5-184" value="&lt;font color=&quot;#ffffff&quot;&gt;rematch&lt;br&gt;&lt;/font&gt;" style="rounded=1;whiteSpace=wrap;html=1;fillColor=#000000;" vertex="1" parent="XQ3u0GxdHT3JZlndSvd5-163">
          <mxGeometry x="10" y="239.03999999999996" width="60" height="20" as="geometry" />
        </mxCell>
        <mxCell id="XQ3u0GxdHT3JZlndSvd5-181" value="&lt;span style=&quot;color: rgb(0, 0, 0); font-family: Helvetica; font-size: 11px; font-style: normal; font-variant-ligatures: normal; font-variant-caps: normal; font-weight: 700; letter-spacing: normal; orphans: 2; text-align: center; text-indent: 0px; text-transform: none; widows: 2; word-spacing: 0px; -webkit-text-stroke-width: 0px; background-color: rgb(255, 255, 255); text-decoration-thickness: initial; text-decoration-style: initial; text-decoration-color: initial; float: none; display: inline !important;&quot;&gt;The Game Page&lt;/span&gt;" style="text;whiteSpace=wrap;html=1;" vertex="1" parent="1">
          <mxGeometry x="2950" y="1489" width="140" height="40" as="geometry" />
        </mxCell>
        <mxCell id="XQ3u0GxdHT3JZlndSvd5-187" value="" style="edgeStyle=orthogonalEdgeStyle;rounded=0;orthogonalLoop=1;jettySize=auto;html=1;entryX=1.004;entryY=0.483;entryDx=0;entryDy=0;entryPerimeter=0;" edge="1" parent="1" source="XQ3u0GxdHT3JZlndSvd5-166" target="XQ3u0GxdHT3JZlndSvd5-107">
          <mxGeometry relative="1" as="geometry" />
        </mxCell>
      </root>
    </mxGraphModel>
  </diagram>
</mxfile>
